<?xml version="1.0" encoding="utf-8"?>
<!-- Generator: Adobe Illustrator 16.0.0, SVG Export Plug-In . SVG Version: 6.00 Build 0)  -->
<!DOCTYPE svg PUBLIC "-//W3C//DTD SVG 1.1//EN" "http://www.w3.org/Graphics/SVG/1.1/DTD/svg11.dtd">
<svg version="1.1" id="Layer_1" xmlns="http://www.w3.org/2000/svg" xmlns:xlink="http://www.w3.org/1999/xlink" x="0px" y="0px"
	 width="142.555px" height="134.889px" viewBox="0 0 142.555 134.889" enable-background="new 0 0 142.555 134.889"
	 xml:space="preserve">
<g>
	<path fill="none" stroke="orange" stroke-width="10.3896" stroke-linecap="round" stroke-linejoin="round" stroke-miterlimit="10" d="
		M62.711,39.942c3.387-11.389,11.574-21.268,23.307-26.412c21.162-9.281,45.84,0.35,55.117,21.509
		c8.049,18.358,1.867,39.357-13.727,50.658"/>
	<path fill="none" stroke="gray" stroke-width="10" stroke-linecap="round" stroke-linejoin="round" stroke-miterlimit="10" d="
		M115.5,81.476c-2.789,0.058-5.43,0.692-7.812,1.783c0.564-2.695,0.84-5.5,0.779-8.373c-0.416-20.322-17.23-36.456-37.549-36.039
		C52.028,39.237,36.76,53.791,35.039,72.161c-3.557-1.653-7.535-2.543-11.723-2.456C8.666,70.007-2.963,82.123-2.662,96.774
		s11.222,27.478,25.873,27.178c0.301-0.007,1.512,0.083,1.813,0.067l90.637-0.274l0,0c0,0,0.357-0.007,0.385-0.007
		c10.918-0.227,19.719-10.621,19.494-21.541C135.315,91.283,126.416,81.252,115.5,81.476z"/>
	

</g>
</svg>
